<mxfile host="app.diagrams.net" agent="Mozilla/5.0 (Windows NT 10.0; Win64; x64) AppleWebKit/537.36 (KHTML, like Gecko) Chrome/132.0.0.0 Safari/537.36 OPR/117.0.0.0" version="26.0.16">
  <diagram name="Página-1" id="QhPvHFJVr1K-h6irQkuh">
    <mxGraphModel dx="1380" dy="1942" grid="1" gridSize="10" guides="1" tooltips="1" connect="1" arrows="1" fold="1" page="1" pageScale="1" pageWidth="827" pageHeight="1169" math="0" shadow="0">
      <root>
        <mxCell id="0" />
        <mxCell id="1" parent="0" />
        <mxCell id="N8JNlJCpXub6PgOuSdy_-1" style="edgeStyle=orthogonalEdgeStyle;rounded=0;orthogonalLoop=1;jettySize=auto;html=1;exitX=1;exitY=0.5;exitDx=0;exitDy=0;entryX=0;entryY=0.5;entryDx=0;entryDy=0;" edge="1" parent="1" source="N8JNlJCpXub6PgOuSdy_-2" target="N8JNlJCpXub6PgOuSdy_-4">
          <mxGeometry relative="1" as="geometry" />
        </mxCell>
        <mxCell id="N8JNlJCpXub6PgOuSdy_-2" value="INICIO" style="ellipse;whiteSpace=wrap;html=1;" vertex="1" parent="1">
          <mxGeometry x="10" y="10" width="120" height="80" as="geometry" />
        </mxCell>
        <mxCell id="N8JNlJCpXub6PgOuSdy_-3" style="edgeStyle=orthogonalEdgeStyle;rounded=0;orthogonalLoop=1;jettySize=auto;html=1;exitX=1;exitY=0.5;exitDx=0;exitDy=0;" edge="1" parent="1" source="N8JNlJCpXub6PgOuSdy_-14" target="N8JNlJCpXub6PgOuSdy_-6">
          <mxGeometry relative="1" as="geometry">
            <mxPoint x="340" y="50" as="targetPoint" />
            <Array as="points">
              <mxPoint x="550" y="70" />
              <mxPoint x="550" y="215" />
            </Array>
          </mxGeometry>
        </mxCell>
        <mxCell id="N8JNlJCpXub6PgOuSdy_-4" value="CONSULTAR HISTORICO DAS MOVIMENTAÇOES FEITEAS NA ABA DE MOVIMENTACOES" style="rounded=1;whiteSpace=wrap;html=1;" vertex="1" parent="1">
          <mxGeometry x="190" y="20" width="120" height="100" as="geometry" />
        </mxCell>
        <mxCell id="N8JNlJCpXub6PgOuSdy_-5" style="edgeStyle=orthogonalEdgeStyle;rounded=0;orthogonalLoop=1;jettySize=auto;html=1;exitX=0.5;exitY=0;exitDx=0;exitDy=0;entryX=1;entryY=0.5;entryDx=0;entryDy=0;" edge="1" parent="1" source="N8JNlJCpXub6PgOuSdy_-25" target="N8JNlJCpXub6PgOuSdy_-17">
          <mxGeometry relative="1" as="geometry">
            <mxPoint x="640" y="-90" as="targetPoint" />
            <Array as="points">
              <mxPoint x="715" y="-40" />
              <mxPoint x="640" y="-40" />
            </Array>
          </mxGeometry>
        </mxCell>
        <mxCell id="N8JNlJCpXub6PgOuSdy_-6" value="TIPOS DE HISTORICO" style="swimlane;fontStyle=0;childLayout=stackLayout;horizontal=1;startSize=30;horizontalStack=0;resizeParent=1;resizeParentMax=0;resizeLast=0;collapsible=1;marginBottom=0;whiteSpace=wrap;html=1;" vertex="1" parent="1">
          <mxGeometry x="560" y="110" width="140" height="210" as="geometry" />
        </mxCell>
        <mxCell id="N8JNlJCpXub6PgOuSdy_-7" value="USUARIOS" style="text;strokeColor=none;fillColor=none;align=left;verticalAlign=middle;spacingLeft=4;spacingRight=4;overflow=hidden;points=[[0,0.5],[1,0.5]];portConstraint=eastwest;rotatable=0;whiteSpace=wrap;html=1;" vertex="1" parent="N8JNlJCpXub6PgOuSdy_-6">
          <mxGeometry y="30" width="140" height="30" as="geometry" />
        </mxCell>
        <mxCell id="N8JNlJCpXub6PgOuSdy_-8" value="ATIVO" style="text;strokeColor=none;fillColor=none;align=left;verticalAlign=middle;spacingLeft=4;spacingRight=4;overflow=hidden;points=[[0,0.5],[1,0.5]];portConstraint=eastwest;rotatable=0;whiteSpace=wrap;html=1;" vertex="1" parent="N8JNlJCpXub6PgOuSdy_-6">
          <mxGeometry y="60" width="140" height="30" as="geometry" />
        </mxCell>
        <mxCell id="N8JNlJCpXub6PgOuSdy_-9" value="DATA" style="text;strokeColor=none;fillColor=none;align=left;verticalAlign=middle;spacingLeft=4;spacingRight=4;overflow=hidden;points=[[0,0.5],[1,0.5]];portConstraint=eastwest;rotatable=0;whiteSpace=wrap;html=1;" vertex="1" parent="N8JNlJCpXub6PgOuSdy_-6">
          <mxGeometry y="90" width="140" height="30" as="geometry" />
        </mxCell>
        <mxCell id="N8JNlJCpXub6PgOuSdy_-10" value="LOCAL DE ORIGEM" style="text;strokeColor=none;fillColor=none;align=left;verticalAlign=middle;spacingLeft=4;spacingRight=4;overflow=hidden;points=[[0,0.5],[1,0.5]];portConstraint=eastwest;rotatable=0;whiteSpace=wrap;html=1;" vertex="1" parent="N8JNlJCpXub6PgOuSdy_-6">
          <mxGeometry y="120" width="140" height="30" as="geometry" />
        </mxCell>
        <mxCell id="N8JNlJCpXub6PgOuSdy_-11" value="LOCAL DESTINO" style="text;strokeColor=none;fillColor=none;align=left;verticalAlign=middle;spacingLeft=4;spacingRight=4;overflow=hidden;points=[[0,0.5],[1,0.5]];portConstraint=eastwest;rotatable=0;whiteSpace=wrap;html=1;" vertex="1" parent="N8JNlJCpXub6PgOuSdy_-6">
          <mxGeometry y="150" width="140" height="30" as="geometry" />
        </mxCell>
        <mxCell id="N8JNlJCpXub6PgOuSdy_-12" value="DATA E HORA&amp;nbsp;" style="text;strokeColor=none;fillColor=none;align=left;verticalAlign=middle;spacingLeft=4;spacingRight=4;overflow=hidden;points=[[0,0.5],[1,0.5]];portConstraint=eastwest;rotatable=0;whiteSpace=wrap;html=1;" vertex="1" parent="N8JNlJCpXub6PgOuSdy_-6">
          <mxGeometry y="180" width="140" height="30" as="geometry" />
        </mxCell>
        <mxCell id="N8JNlJCpXub6PgOuSdy_-13" value="" style="edgeStyle=orthogonalEdgeStyle;rounded=0;orthogonalLoop=1;jettySize=auto;html=1;exitX=1;exitY=0.5;exitDx=0;exitDy=0;" edge="1" parent="1" source="N8JNlJCpXub6PgOuSdy_-4" target="N8JNlJCpXub6PgOuSdy_-14">
          <mxGeometry relative="1" as="geometry">
            <mxPoint x="570" y="65" as="targetPoint" />
            <mxPoint x="310" y="50" as="sourcePoint" />
          </mxGeometry>
        </mxCell>
        <mxCell id="N8JNlJCpXub6PgOuSdy_-14" value="LISTA DE MOVIMENTAÇAO" style="rounded=1;whiteSpace=wrap;html=1;" vertex="1" parent="1">
          <mxGeometry x="350" y="40" width="120" height="60" as="geometry" />
        </mxCell>
        <mxCell id="N8JNlJCpXub6PgOuSdy_-15" style="edgeStyle=orthogonalEdgeStyle;rounded=0;orthogonalLoop=1;jettySize=auto;html=1;exitX=0.5;exitY=1;exitDx=0;exitDy=0;" edge="1" parent="1" source="N8JNlJCpXub6PgOuSdy_-17" target="N8JNlJCpXub6PgOuSdy_-21">
          <mxGeometry relative="1" as="geometry" />
        </mxCell>
        <mxCell id="N8JNlJCpXub6PgOuSdy_-16" style="edgeStyle=orthogonalEdgeStyle;rounded=0;orthogonalLoop=1;jettySize=auto;html=1;exitX=0.5;exitY=0;exitDx=0;exitDy=0;" edge="1" parent="1" source="N8JNlJCpXub6PgOuSdy_-17" target="N8JNlJCpXub6PgOuSdy_-23">
          <mxGeometry relative="1" as="geometry" />
        </mxCell>
        <mxCell id="N8JNlJCpXub6PgOuSdy_-17" value="FILTRO DE INFO" style="rhombus;whiteSpace=wrap;html=1;direction=south;" vertex="1" parent="1">
          <mxGeometry x="585" y="-150" width="110" height="100" as="geometry" />
        </mxCell>
        <mxCell id="N8JNlJCpXub6PgOuSdy_-18" value="SIM" style="rounded=1;whiteSpace=wrap;html=1;fillColor=#008a00;fontColor=#ffffff;strokeColor=#005700;" vertex="1" parent="1">
          <mxGeometry x="720" y="-110" width="50" height="20" as="geometry" />
        </mxCell>
        <mxCell id="N8JNlJCpXub6PgOuSdy_-19" value="NAO" style="rounded=1;whiteSpace=wrap;html=1;fillColor=#fa6800;fontColor=#000000;strokeColor=#C73500;" vertex="1" parent="1">
          <mxGeometry x="500" y="-110" width="50" height="20" as="geometry" />
        </mxCell>
        <mxCell id="N8JNlJCpXub6PgOuSdy_-20" style="edgeStyle=orthogonalEdgeStyle;rounded=0;orthogonalLoop=1;jettySize=auto;html=1;exitX=0;exitY=0.5;exitDx=0;exitDy=0;" edge="1" parent="1" source="N8JNlJCpXub6PgOuSdy_-21">
          <mxGeometry relative="1" as="geometry">
            <mxPoint x="640" y="-260" as="targetPoint" />
          </mxGeometry>
        </mxCell>
        <mxCell id="N8JNlJCpXub6PgOuSdy_-21" value="APARECE TODAS AS MOVIMENTAÇOES NO GERAL" style="rounded=1;whiteSpace=wrap;html=1;" vertex="1" parent="1">
          <mxGeometry x="320" y="-140" width="140" height="80" as="geometry" />
        </mxCell>
        <mxCell id="N8JNlJCpXub6PgOuSdy_-22" style="edgeStyle=orthogonalEdgeStyle;rounded=0;orthogonalLoop=1;jettySize=auto;html=1;exitX=1;exitY=0.5;exitDx=0;exitDy=0;" edge="1" parent="1" source="N8JNlJCpXub6PgOuSdy_-23">
          <mxGeometry relative="1" as="geometry">
            <mxPoint x="640" y="-270" as="targetPoint" />
          </mxGeometry>
        </mxCell>
        <mxCell id="N8JNlJCpXub6PgOuSdy_-23" value="EXIBIR OS DADOS&amp;nbsp; SELECIONADOS" style="rounded=1;whiteSpace=wrap;html=1;" vertex="1" parent="1">
          <mxGeometry x="820" y="-130" width="120" height="60" as="geometry" />
        </mxCell>
        <mxCell id="N8JNlJCpXub6PgOuSdy_-24" value="BOTAO QUE EXPORTA PARA UMA TELA ONDE SE PODE COPIAR, MANDAR PARA EXEL, IMPRIMIR, ETC" style="rounded=1;whiteSpace=wrap;html=1;" vertex="1" parent="1">
          <mxGeometry x="585" y="-370" width="120" height="110" as="geometry" />
        </mxCell>
        <mxCell id="N8JNlJCpXub6PgOuSdy_-26" value="" style="edgeStyle=orthogonalEdgeStyle;rounded=0;orthogonalLoop=1;jettySize=auto;html=1;exitX=0.5;exitY=0;exitDx=0;exitDy=0;" edge="1" parent="1" source="N8JNlJCpXub6PgOuSdy_-6" target="N8JNlJCpXub6PgOuSdy_-25">
          <mxGeometry relative="1" as="geometry">
            <mxPoint x="630" y="-59" as="targetPoint" />
            <Array as="points" />
            <mxPoint x="630" y="110" as="sourcePoint" />
          </mxGeometry>
        </mxCell>
        <mxCell id="N8JNlJCpXub6PgOuSdy_-25" value="BOTAO PARA FILTRAR O QUE DESEJAR SELECIONADO NAS CAIXAS DE TEXTO (FILTROS)&lt;br&gt;COMO NOME DO ATIVO, MARCA, TIPO, LOCAL DE ORIGEM/DESTINO, DATA E HORA (FINAL E INICIAL) E USUARIO QUE FEZ A MOVIMENTAÇAO" style="rounded=1;whiteSpace=wrap;html=1;" vertex="1" parent="1">
          <mxGeometry x="570" y="-30" width="290" height="110" as="geometry" />
        </mxCell>
      </root>
    </mxGraphModel>
  </diagram>
</mxfile>
